<?xml version="1.0" encoding="utf-8" ?>
<svg xmlns="http://www.w3.org/2000/svg" width="1024" height="1024">
    <path fill="#2EBFA5"
        d="M0 0L1024 0L1024 1024L0 1024L0 0ZM511.45 162.341C480.396 196.098 450.362 230.78 421.389 266.34C362.396 338.503 296.442 427.307 266.822 516.239C256.187 548.169 250.26 582.227 251.574 615.924C254.234 684.147 285.246 747.018 335.231 793.068C373.957 828.848 422.698 851.931 474.916 859.223C483.279 860.367 491.946 861.486 500.393 861.594C497.626 851.25 494.794 841.155 490.872 831.175C475.735 792.648 448.775 757.193 418.152 729.617C406.355 718.993 393.749 709.512 380.941 700.16C361.97 686.307 341.213 674.157 324.177 657.843C288.999 624.159 274.748 582.76 276.285 534.751C276.871 516.455 279.418 499.003 284.533 481.411C284.424 514.047 294.058 536.175 316.963 559.182C333.495 575.787 352.908 589.037 370.72 604.161C425.782 650.912 473.607 699.066 501.455 767.069C505.863 777.833 508.689 788.869 512.36 799.843C532.847 718.08 590.769 655.325 654.75 603.612C678.837 584.145 705.203 566.06 723.45 540.545C735.667 523.461 740.883 505.152 740.518 484.318C753.05 507.484 748.3 564.052 740.753 589.691C730.871 623.266 711.418 652.148 682.944 672.744C674.666 678.732 665.769 683.897 657.22 689.489C647.818 695.736 638.629 702.298 629.669 709.163C591.329 738.518 558.749 776.639 538.132 820.398C531.936 833.549 526.585 847.201 524.195 861.611C597.649 856.983 660.872 827.686 709.875 772.249C754.366 722.224 777.097 656.538 773.044 589.714C771.402 563.466 765.372 538.03 756.6 513.277C721.23 413.469 633.819 299.067 563.637 219.649C551.746 206.194 539.895 192.669 527.818 179.381C522.83 173.892 517.583 167.079 511.76 162.541C511.663 162.465 511.554 162.408 511.45 162.341Z" />
    <path fill="white"
        d="M500.393 861.594C491.946 861.486 483.279 860.367 474.916 859.223C422.698 851.931 373.957 828.848 335.231 793.068C285.246 747.018 254.234 684.147 251.574 615.924C250.26 582.227 256.187 548.169 266.822 516.239C296.442 427.307 362.396 338.503 421.389 266.34C450.362 230.78 480.396 196.098 511.45 162.341C511.554 162.408 511.663 162.465 511.76 162.541C517.583 167.079 522.83 173.892 527.818 179.381C539.895 192.669 551.746 206.194 563.637 219.649C633.819 299.067 721.23 413.469 756.6 513.277C765.372 538.03 771.402 563.466 773.044 589.714C777.097 656.538 754.366 722.224 709.875 772.249C660.872 827.686 597.649 856.983 524.195 861.611C526.585 847.201 531.936 833.549 538.132 820.398C558.749 776.639 591.329 738.518 629.669 709.163C638.629 702.298 647.818 695.736 657.22 689.489C665.769 683.897 674.666 678.732 682.944 672.744C711.418 652.148 730.871 623.266 740.753 589.691C748.3 564.052 753.05 507.484 740.518 484.318C740.883 505.152 735.667 523.461 723.45 540.545C705.203 566.06 678.837 584.145 654.75 603.612C590.769 655.325 532.847 718.08 512.36 799.843C508.689 788.869 505.863 777.833 501.455 767.069C473.607 699.066 425.782 650.912 370.72 604.161C352.908 589.037 333.495 575.787 316.963 559.182C294.058 536.175 284.424 514.047 284.533 481.411C279.418 499.003 276.871 516.455 276.285 534.751C274.748 582.76 288.999 624.159 324.177 657.843C341.213 674.157 361.97 686.307 380.941 700.16C393.749 709.512 406.355 718.993 418.152 729.617C448.775 757.193 475.735 792.648 490.872 831.175C494.794 841.155 497.626 851.25 500.393 861.594ZM511.461 208.864C501.859 216.849 493.138 226.418 484.359 235.306C427.631 292.736 375.063 369.701 367.475 452.06C362.596 505.008 376.878 557.526 411.106 598.655C421.013 610.673 432.095 621.67 444.188 631.484C458.346 642.926 473.546 653.14 486.699 665.786C493.364 672.187 499.438 679.177 504.845 686.672C506.977 689.682 509.534 696.008 512.338 697.992L512.911 697.504C534.323 661.185 559.315 650.93 589.123 625.073C631.487 588.324 657.806 531.272 658.282 475.209C658.466 453.545 654.917 433.349 649.521 412.452C632.36 345.984 588.221 284.75 540.873 236.266C534.164 229.396 519.706 213.825 512.098 209.209C511.716 208.977 511.778 209.014 511.461 208.864Z" />
    <path fill="#2EBFA5"
        d="M512.911 697.504L512.338 697.992C509.534 696.008 506.977 689.682 504.845 686.672C499.438 679.177 493.364 672.187 486.699 665.786C473.546 653.14 458.346 642.926 444.188 631.484C432.095 621.67 421.013 610.673 411.106 598.655C376.878 557.526 362.596 505.008 367.475 452.06C375.063 369.701 427.631 292.736 484.359 235.306C493.138 226.418 501.859 216.849 511.461 208.864C511.778 209.014 511.716 208.977 512.098 209.209C519.706 213.825 534.164 229.396 540.873 236.266C588.221 284.75 632.36 345.984 649.521 412.452C654.917 433.349 658.466 453.545 658.282 475.209C657.806 531.272 631.487 588.324 589.123 625.073C559.315 650.93 534.323 661.185 512.911 697.504ZM511.516 215.435C498.578 228.659 486.947 242.969 475.301 257.319C434.604 307.467 396.202 365.998 396.763 433C397.077 470.614 413.111 512.095 440.109 538.548C446.985 545.286 454.175 551.579 460.587 558.787C481.37 582.151 497.817 612.574 506.273 642.716C507.221 646.092 512.149 670.512 512.198 670.585C514.202 663.292 515.001 655.727 516.885 648.403C522.397 626.986 531.66 604.05 543.345 585.213C556.987 563.221 578.514 548.348 594.26 528.038C604.035 515.43 611.37 501.183 616.865 486.243C637.601 429.876 623.935 373.583 595.172 322.979C578.669 293.943 557.842 267.888 536.328 242.496C528.553 233.319 520.736 223.227 511.516 215.435Z" />
    <path fill="white"
        d="M512.198 670.585C512.149 670.512 507.221 646.092 506.273 642.716C497.817 612.574 481.37 582.151 460.587 558.787C454.175 551.579 446.985 545.286 440.109 538.548C413.111 512.095 397.077 470.614 396.763 433C396.202 365.998 434.604 307.467 475.301 257.319C486.947 242.969 498.578 228.659 511.516 215.435C520.736 223.227 528.553 233.319 536.328 242.496C557.842 267.888 578.669 293.943 595.172 322.979C623.935 373.583 637.601 429.876 616.865 486.243C611.37 501.183 604.035 515.43 594.26 528.038C578.514 548.348 556.987 563.221 543.345 585.213C531.66 604.05 522.397 626.986 516.885 648.403C515.001 655.727 514.202 663.292 512.198 670.585Z" />
</svg>
